<svg width="33" height="33" viewBox="0 0 33 33" fill="none" xmlns="http://www.w3.org/2000/svg">
<path d="M9.73205 25.5932C9.39795 25.3468 9.17543 24.9777 9.11347 24.5671C9.0515 24.1566 9.15515 23.7383 9.40162 23.4042C9.6481 23.0701 10.0172 22.8476 10.4277 22.7856C10.8383 22.7236 11.2566 22.8273 11.5907 23.0737C12.998 24.1098 14.7115 24.6452 16.4582 24.5945C18.205 24.5438 19.8846 23.91 21.2294 22.794C22.5742 21.678 23.5069 20.1441 23.8788 18.4367C24.2507 16.7292 24.0405 14.9463 23.2817 13.3722C22.5229 11.798 21.2591 10.523 19.6916 9.75042C18.1242 8.9778 16.3433 8.75196 14.6326 9.10889C12.9219 9.46581 11.3799 10.385 10.2521 11.7199C9.12441 13.0549 8.47588 14.7288 8.40985 16.4751C8.39424 16.8899 8.21447 17.2816 7.91007 17.564C7.60568 17.8463 7.2016 17.9961 6.78673 17.9805C6.37185 17.9649 5.98017 17.7851 5.69785 17.4807C5.41552 17.1764 5.26568 16.7723 5.28128 16.3574C5.37363 13.9125 6.28158 11.5688 7.86048 9.69971C9.43938 7.83066 11.5984 6.5438 13.9935 6.04417C16.3886 5.54453 18.8821 5.86086 21.0766 6.94275C23.271 8.02465 25.0403 9.80987 26.1025 12.014C27.1646 14.2181 27.4586 16.7143 26.9375 19.1048C26.4164 21.4953 25.1102 23.6427 23.227 25.2048C21.3439 26.7668 18.9921 27.6537 16.5465 27.7241C14.1008 27.7945 11.7019 27.0444 9.73205 25.5932Z" fill="white"/>
<path d="M10.8428 12.6408C11.02 12.5366 11.216 12.4683 11.4197 12.4399C11.6233 12.4114 11.8305 12.4233 12.0295 12.475C12.2286 12.5266 12.4154 12.6169 12.5796 12.7408C12.7437 12.8646 12.8818 13.0196 12.986 13.1969C13.0902 13.3741 13.1585 13.5701 13.1869 13.7737C13.2154 13.9774 13.2035 14.1846 13.1518 14.3836C13.1002 14.5826 13.0099 14.7695 12.886 14.9336C12.7621 15.0977 12.6072 15.2358 12.4299 15.34L6.85207 18.6188C6.4945 18.8219 6.07138 18.8762 5.67414 18.7698C5.2769 18.6635 4.93745 18.4051 4.72917 18.0506C4.52088 17.696 4.46048 17.2737 4.56103 16.875C4.66157 16.4762 4.91498 16.1331 5.26648 15.9196L10.8428 12.6408Z" fill="white"/>
<path d="M2.44623 12.4754C2.30074 12.0922 2.31137 11.6672 2.47585 11.2917C2.64033 10.9162 2.94552 10.6203 3.32586 10.4674C3.7062 10.3145 4.13134 10.3169 4.50993 10.4741C4.88851 10.6313 5.19034 10.9307 5.35056 11.308L7.51062 16.684C7.59196 16.8755 7.63429 17.0814 7.63513 17.2895C7.63597 17.4976 7.59529 17.7038 7.51549 17.8961C7.43569 18.0883 7.31836 18.2626 7.17037 18.409C7.02238 18.5553 6.84669 18.6706 6.65359 18.7483C6.46048 18.8259 6.25384 18.8642 6.04575 18.861C5.83765 18.8578 5.63228 18.8132 5.44165 18.7297C5.25102 18.6462 5.07895 18.5255 4.93552 18.3747C4.79208 18.2239 4.68015 18.046 4.60629 17.8514L2.44623 12.4754Z" fill="white"/>
</svg>
